IKResults
version=1
nRows=4
nColumns=63
inDegrees=yes

Units are S.I. units (second, meters, Newtons, ...)
If the header above contains a line with 'inDegrees', this indicates whether rotational values are in degrees (yes) or radians (no).

endheader
time	pelvis_tilt	pelvis_list	pelvis_rotation	pelvis_tx	pelvis_ty	pelvis_tz	hip_flexion_r	hip_adduction_r	hip_rotation_r	knee_angle_r	knee_angle_r_beta	ankle_angle_r	subtalar_angle_r	mtp_angle_r	hip_flexion_l	hip_adduction_l	hip_rotation_l	knee_angle_l	knee_angle_l_beta	ankle_angle_l	subtalar_angle_l	mtp_angle_l	L5_S1_Flex_Ext	L5_S1_Lat_Bending	L5_S1_axial_rotation	L4_L5_Flex_Ext	L4_L5_Lat_Bending	L4_L5_axial_rotation	L3_L4_Flex_Ext	L3_L4_Lat_Bending	L3_L4_axial_rotation	L2_L3_Flex_Ext	L2_L3_Lat_Bending	L2_L3_axial_rotation	L1_L2_Flex_Ext	L1_L2_Lat_Bending	L1_L2_axial_rotation	L1_T12_Flex_Ext	L1_T12_Lat_Bending	L1_T12_axial_rotation	Abs_r3	Abs_r2	Abs_r1	Abs_t1	Abs_t2	neck_flexion	neck_bending	neck_rotation	arm_flex_r	arm_add_r	arm_rot_r	elbow_flex_r	pro_sup_r	wrist_flex_r	wrist_dev_r	arm_flex_l	arm_add_l	arm_rot_l	elbow_flex_l	pro_sup_l	wrist_flex_l	wrist_dev_l
      6.03333333	     43.92099977	      5.05862995	      1.86883262	     -0.71967966	      0.32534635	     -0.36291765	     51.77102719	    -19.89987743	     -6.36565494	     30.94457964	      0.54008480	    -29.52038545	    -16.47544074	      0.00000000	     50.41826335	    -16.66869064	      0.83626135	     34.26643169	      0.59806206	      0.00000000	      0.00000000	      0.00000000	      6.69075845	     -0.64258359	      0.11838830	     12.42540752	     -0.85463617	      0.12578757	     10.99224706	     -1.56237773	      0.12578757	      7.64686783	     -1.56237773	      0.10358976	      6.21303830	     -1.31035645	      0.09619049	      3.82309938	     -0.99536198	      0.08879122	     47.79141853	     -7.26903405	      0.65844021	      0.00000000	      0.00000000	    -28.14694866	      2.66773155	     -8.52889240	    -91.47801695	    -43.45268158	    -56.38966574	     47.07211988	     89.99559364	      0.00000000	      0.00000000	    -79.73135031	    -45.84073732	    -79.26478055	     36.84351132	     89.99559364	      0.00000000	      0.00000000
      6.06666667	     43.08601976	      4.55981274	      2.05905698	     -0.71877650	      0.32591177	     -0.36385129	     52.17472208	    -19.70907433	     -7.07988678	     30.52634976	      0.53278531	    -29.75239082	    -16.37558782	      0.00000000	     51.40001929	    -16.83771324	      1.34040236	     34.30546221	      0.59874327	      0.00000000	      0.00000000	      0.00000000	      6.86475140	     -0.58073227	      0.05906141	     12.74852982	     -0.77237392	      0.06275275	     11.27810007	     -1.41199244	      0.06275275	      7.84572437	     -1.41199244	      0.05167873	      6.37460815	     -1.18422924	      0.04798740	      3.92251895	     -0.89955428	      0.04429606	     49.03423275	     -6.56935956	      0.32848185	      0.00000000	      0.00000000	    -28.17222794	      2.27756193	     -8.36156386	    -92.88924675	    -43.46358664	    -56.86772178	     47.49259801	     89.99559364	      0.00000000	      0.00000000	    -79.78150618	    -45.66238811	    -78.95218396	     36.87365363	     89.99559364	      0.00000000	      0.00000000
      6.10000000	     43.06846373	      4.56639094	      2.05676774	     -0.71871990	      0.32614867	     -0.36391563	     52.15737050	    -19.71895930	     -7.09235350	     30.51124536	      0.53252169	    -29.72946215	    -16.36798114	      0.00000000	     51.39021387	    -16.81890207	      1.34416055	     34.32718811	      0.59912246	      0.00000000	      0.00000000	      0.00000000	      6.87291516	     -0.57935908	      0.06089696	     12.76369074	     -0.77054758	      0.06470302	     11.29151231	     -1.40865367	      0.06470302	      7.85505473	     -1.40865367	      0.05328484	      6.38218901	     -1.18142904	      0.04947878	      3.92718372	     -0.89742722	      0.04567272	     49.09254567	     -6.55382581	      0.33869065	      0.00000000	      0.00000000	    -28.15543740	      2.28616915	     -8.36213721	    -93.00708656	    -43.45876123	    -56.88832625	     47.52475867	     89.99559364	      0.00000000	      0.00000000	    -79.76346911	    -45.64729917	    -78.96265352	     36.86098823	     89.99559364	      0.00000000	      0.00000000
      6.13333333	     42.52433643	      4.29198496	      2.14154773	     -0.71817696	      0.32645277	     -0.36450422	     52.43277947	    -19.61246642	     -7.52247381	     30.21526423	      0.52735585	    -29.78959105	    -16.15142479	      0.00000000	     52.02974263	    -16.89243700	      1.68479919	     34.37948159	      0.60003515	      0.00000000	      0.00000000	      0.00000000	      6.98528972	     -0.54094395	      0.03446616	     12.97238154	     -0.71945545	      0.03662029	     11.47613248	     -1.31525111	      0.03662029	      7.98348762	     -1.31525111	      0.03015789	      6.48654004	     -1.10309290	      0.02800375	      3.99139455	     -0.83792217	      0.02584962	     49.89522595	     -6.11926611	      0.19169043	      0.00000000	      0.00000000	    -28.14602201	      2.00863031	     -8.16958553	    -93.97055493	    -43.39980544	    -57.25092851	     47.89891619	     89.99559364	      0.00000000	      0.00000000	    -79.62128905	    -45.53129904	    -78.94842844	     36.81467054	     89.99559364	      0.00000000	      0.00000000
